<svg xmlns="http://www.w3.org/2000/svg" width="1200" height="560" viewBox="0 0 1200 560">
<rect width="100%" height="100%" fill="#f5f7fa"/>
<rect x="32" y="28" width="1136" height="500" rx="14" fill="#fff" stroke="#dce4ec"/>
<text x="64.0" y="72.0" font-size="26" text-anchor="start" fill="#243447" font-weight="700">All sites: monthly recorded subsetted data · 2021</text>
<text x="64.0" y="99.0" font-size="14" text-anchor="start" fill="#627386" font-weight="400">Recorded total: 7.62 TB</text>
<line x1="126" y1="465.0" x2="1124" y2="465.0" stroke="#e7edf3"/>
<text x="118.0" y="470.0" font-size="11" text-anchor="end" fill="#627386" font-weight="400">0.0 TB</text>
<line x1="126" y1="382.5" x2="1124" y2="382.5" stroke="#e7edf3"/>
<text x="118.0" y="387.5" font-size="11" text-anchor="end" fill="#627386" font-weight="400">0.6 TB</text>
<line x1="126" y1="300.0" x2="1124" y2="300.0" stroke="#e7edf3"/>
<text x="118.0" y="305.0" font-size="11" text-anchor="end" fill="#627386" font-weight="400">1.2 TB</text>
<line x1="126" y1="217.5" x2="1124" y2="217.5" stroke="#e7edf3"/>
<text x="118.0" y="222.5" font-size="11" text-anchor="end" fill="#627386" font-weight="400">1.8 TB</text>
<line x1="126" y1="135.0" x2="1124" y2="135.0" stroke="#e7edf3"/>
<text x="118.0" y="140.0" font-size="11" text-anchor="end" fill="#627386" font-weight="400">2.4 TB</text>
<text x="167.6" y="487.0" font-size="11" text-anchor="middle" fill="#627386" font-weight="400">Jan</text>
<text x="250.8" y="487.0" font-size="11" text-anchor="middle" fill="#627386" font-weight="400">Feb</text>
<text x="333.9" y="487.0" font-size="11" text-anchor="middle" fill="#627386" font-weight="400">Mar</text>
<text x="417.1" y="487.0" font-size="11" text-anchor="middle" fill="#627386" font-weight="400">Apr</text>
<text x="500.2" y="487.0" font-size="11" text-anchor="middle" fill="#627386" font-weight="400">May</text>
<text x="583.4" y="487.0" font-size="11" text-anchor="middle" fill="#627386" font-weight="400">Jun</text>
<text x="666.6" y="487.0" font-size="11" text-anchor="middle" fill="#627386" font-weight="400">Jul</text>
<text x="749.8" y="487.0" font-size="11" text-anchor="middle" fill="#627386" font-weight="400">Aug</text>
<text x="832.9" y="487.0" font-size="11" text-anchor="middle" fill="#627386" font-weight="400">Sep</text>
<text x="916.1" y="487.0" font-size="11" text-anchor="middle" fill="#627386" font-weight="400">Oct</text>
<text x="999.2" y="487.0" font-size="11" text-anchor="middle" fill="#627386" font-weight="400">Nov</text>
<text x="1082.4" y="487.0" font-size="11" text-anchor="middle" fill="#627386" font-weight="400">Dec</text>
<rect x="143.5" y="465.0" width="48.2" height="0.0" fill="#0072B2"/>
<rect x="226.6" y="465.0" width="48.2" height="0.0" fill="#0072B2"/>
<rect x="309.8" y="465.0" width="48.2" height="0.0" fill="#0072B2"/>
<rect x="393.0" y="465.0" width="48.2" height="0.0" fill="#0072B2"/>
<rect x="476.1" y="417.3" width="48.2" height="47.7" fill="#0072B2"/>
<rect x="559.3" y="375.8" width="48.2" height="89.2" fill="#0072B2"/>
<rect x="642.5" y="412.3" width="48.2" height="52.7" fill="#0072B2"/>
<rect x="725.6" y="170.4" width="48.2" height="294.6" fill="#0072B2"/>
<rect x="808.8" y="332.0" width="48.2" height="133.0" fill="#0072B2"/>
<rect x="892.0" y="337.5" width="48.2" height="127.5" fill="#0072B2"/>
<rect x="975.1" y="384.1" width="48.2" height="80.9" fill="#0072B2"/>
<rect x="1058.3" y="244.9" width="48.2" height="220.1" fill="#0072B2"/>
</svg>