<?xml version="1.0" encoding="utf-8"?>
<!-- Generator: Adobe Illustrator 24.3.0, SVG Export Plug-In . SVG Version: 6.00 Build 0)  -->
<svg version="1.1" id="Ebene_1" xmlns="http://www.w3.org/2000/svg" xmlns:xlink="http://www.w3.org/1999/xlink" x="0px" y="0px"
	 width="210px" height="75px" viewBox="0 0 210 75" style="enable-background:new 0 0 210 75;" xml:space="preserve">
<style type="text/css">
	.st0{fill:#005092;}
</style>
<path class="st0" d="M204.4,66.9h-1.6v7.5h0.9v-6.8c0,0,0-0.1,0.1-0.1c0,0,0,0,0,0c0,0,0.1,0,0.1,0.1l1.8,6.9h0.9l1.8-6.8
	c0,0,0.1-0.1,0.1-0.1c0,0,0.1,0,0.1,0.1v6.8h0.9v-7.5h-1.6l-1.6,5.8c0,0.1-0.1,0.1-0.1,0.1c0,0-0.1,0-0.1-0.1L204.4,66.9z
	 M199.9,60.5V58h2.6v-1h-2.6v-2.2h3.6V54h-4.7v7.5h4.9v-1L199.9,60.5z M197,66.9h-1.1v5c0,0.7,0.1,1.3,0.5,1.9
	c0.4,0.6,1.1,0.9,1.7,0.9c0.7,0.1,1.4-0.2,1.9-0.7c0.5-0.6,0.7-1.3,0.7-2v-5h-0.9v4.7c0,0.5-0.1,0.9-0.2,1.4
	c-0.2,0.4-0.7,0.6-1.1,0.6c-1.2,0-1.4-1-1.4-1.8L197,66.9z M185.6,57.5c0-0.6,0.1-1.2,0.3-1.8c0.2-0.6,0.6-1,1.2-1
	c0.8,0,1.2,0.7,1.3,1.4l1-0.2c-0.1-0.6-0.3-1.1-0.7-1.5c-0.4-0.4-1-0.6-1.6-0.6c-2.2,0-2.6,2.2-2.6,3.9c0,3.6,1.9,3.9,2.5,3.9
	c0.6,0,1.2-0.2,1.7-0.6c0.4-0.5,0.7-1.1,0.7-1.7l-1-0.2c0,0.4-0.1,0.7-0.3,1.1c-0.2,0.3-0.6,0.6-1,0.6
	C185.9,60.8,185.6,59.2,185.6,57.5 M187.4,67h-5.4V68h2.2v6.6h1.1V68h2.2L187.4,67z M179.3,61.1c0.5,0.4,1.1,0.6,1.7,0.6
	c0.6,0,1.2-0.1,1.6-0.5c0.5-0.4,0.8-1,0.7-1.7c0-0.4-0.1-0.7-0.2-1c-0.3-0.4-0.6-0.8-1.1-1l-1.5-0.7c-0.5-0.2-0.8-0.6-0.8-1.1
	c0-0.6,0.6-1,1.2-1c0.9,0,1.2,0.5,1.5,1.2l0.9-0.5c-0.4-1-1.4-1.6-2.4-1.6c-1.1-0.1-2.1,0.8-2.1,1.9c0,0,0,0,0,0.1
	c0,0.4,0.1,0.7,0.2,1.1c0.3,0.4,0.7,0.8,1.2,1l1.3,0.6c0.8,0.4,0.9,0.8,0.9,1.1c0,0.7-0.6,1.2-1.2,1.2c0,0-0.1,0-0.1,0
	c-0.8,0-1.5-0.6-1.7-1.3l-0.9,0.6C178.7,60.4,179,60.8,179.3,61.1 M176.8,67h-1.3v7.5h0.9v-5.1c0,0,0-1.2,0-1.4c0,0,0-0.1,0.1-0.1
	l0,0c0.2,0.5,0.4,1.1,0.6,1.6l2.2,4.9h1.2v-7.5h-0.9v4.4c0,0.3,0,0.6,0,1.1c0,0.1,0,0.6,0,0.7c0,0.1,0,0.1,0,0.2h-0.1
	c0-0.1-0.3-0.7-0.3-0.9c0-0.1-0.3-0.7-0.3-0.7L176.8,67z M173.3,67h-4.8v7.5h4.9v-0.9h-3.8v-2.5h2.6v-0.9h-2.6V68h3.6L173.3,67z
	 M167.7,61.7c0.7,0.1,1.4-0.2,1.9-0.7c0.5-0.6,0.7-1.3,0.7-2v-5.1h-0.9v4.7c0,0.5-0.1,1-0.2,1.4c-0.2,0.4-0.7,0.6-1.1,0.6
	c-1.2,0-1.4-1-1.4-1.8v-5h-1.1v4.9c0,0.7,0.1,1.3,0.5,1.9C166.3,61.3,167,61.7,167.7,61.7 M164.7,68.8l-3,4.9v0.8h5.1v-0.9h-2.4
	h-0.8c-0.1,0-0.3,0-0.4,0c-0.1,0-0.1,0-0.2,0l0,0c0-0.1,0-0.1,0.2-0.5c0.3-0.5,0.6-0.9,1.1-1.7l2.3-3.7V67h-4.8V68h2
	c0.3,0,0.9,0,1.1,0c0.1,0,0.2,0,0.3,0c0,0,0.1,0,0.1,0.1c0,0,0,0.1-0.1,0.1c-0.1,0.1-0.1,0.2-0.2,0.3
	C164.9,68.5,164.8,68.7,164.7,68.8 M159.6,60.6v-2.5h2.6v-1h-2.6V55h3.5v-0.9h-4.7v7.5h4.9v-1L159.6,60.6z M156.3,67h-1.3v7.5h0.9
	v-5.1c0,0,0-1.2,0-1.4c0,0,0-0.1,0.1-0.1s0,0,0,0s0.3,1,0.6,1.6l2.2,4.9h1.3v-7.5H159v4.4c0,0.3,0,0.6,0,1.1c0,0.1,0,0.6,0,0.7
	c0,0.1,0,0.1,0,0.2H159l-0.3-0.9c0,0-0.3-0.7-0.3-0.7L156.3,67z M141.9,67h-1.1v7.5h1.1v-3.5h2.7v3.5h1.1V67h-1.1v3.1h-2.7V67z
	 M133.9,70.9c0,3.6,1.9,3.9,2.5,3.9c0.6,0,1.2-0.2,1.7-0.6c0.4-0.5,0.7-1.1,0.7-1.7l-1.1-0.2c0,0.4-0.1,0.7-0.3,1.1
	c-0.2,0.4-0.6,0.6-1,0.6c-1.2,0-1.5-1.6-1.5-3.2c0-0.6,0.1-1.2,0.3-1.8c0.2-0.6,0.6-1,1.2-1c0.8,0,1.2,0.7,1.2,1.4l1-0.2
	c-0.1-0.6-0.3-1.1-0.7-1.5c-0.4-0.4-1-0.6-1.6-0.6C134.3,67,133.9,69.2,133.9,70.9 M114.9,72.2l1.1-3.8c0,0,0,0,0.1,0c0.1,0,0,0,0,0
	l1.2,3.8H114.9z M115.5,67.1l-2.4,7.5h1.1l0.5-1.6h3l0.5,1.6h1.1l-2.5-7.5H115.5z M106.5,67.1H105v7.5h0.8v-6.8c0-0.1,0-0.1,0.1-0.1
	c0,0,0.1,0,0.1,0.1l1.8,6.9h0.9l1.8-6.8c0,0,0.1-0.1,0.1-0.1c0,0,0.1,0,0.1,0.1c0,0,0,0,0,0v6.8h0.8v-7.5h-1.6l-1.6,5.8
	c0,0.1-0.1,0.1-0.1,0.1c0,0-0.1,0-0.1-0.1L106.5,67.1z M101.5,67.1v7.5h1.1v-7.5H101.5z M96.4,67.1h-1.1v7.5h4.5v-0.9h-3.4
	L96.4,67.1z M92.7,67.1l-3,3.5l2.9,4H94v-0.1l-3-4.1l2.9-3.3v-0.2L92.7,67.1z M89.5,67.1h-1.1v7.5h1.1V67.1z M120,29.4l-16.3-10
	c-1.4-0.7-3.1-0.8-4.5-0.1c0,0-2.3,1.2-5.4,2.6c-0.5-1.6-1.1-3.1-1.8-4.6c-13.8,1.4-27.4,3.7-40.8,6.9c-10.5,2.6-20.9,5.9-31,9.8
	c-0.4,0.1-0.8,0.1-1.2-0.1L5.8,26.6c-0.3-0.2-0.3-0.4,0-0.6c0,0,15.7-6.5,40.2-9.9c11.2-1.6,22.5-2.3,33.7-2.2
	c5.8,0.2,11.6,0.8,17.4,1.7c-2.6-1-5.2-1.8-7.9-2.5C83.2,5.4,72.6,0.2,60.4,0.2C46.2,0.2,34,7.3,28.8,17.3C19.4,19.4,10.2,22,1.1,25
	c-1.3,0.5-1.5,1.4-0.2,2.2l16.3,10c1.4,0.8,3.1,0.9,4.6,0.3c0,0,2.3-1.1,5.4-2.3c0.4,1.4,1,2.8,1.7,4.1c13.8-1.4,27.4-3.8,40.8-7.1
	c10.7-2.7,21.1-6.4,31.1-10.9c0.4-0.1,0.7-0.1,1.1,0.1l13.1,8.2c0.3,0.2,0.3,0.5,0,0.6c0,0-15.7,6.9-40.2,10.2
	c-11.2,1.6-22.5,2.3-33.7,2.2c-5.8-0.3-11.6-0.8-17.4-1.7c2.6,1,5.2,1.8,7.9,2.5c6.1,7.8,16.8,12.9,28.9,12.9
	c13.6,0,25.3-6.5,30.9-15.8c9.8-2.1,19.3-5,28.5-8.8c1.3-0.6,1.4-1.6,0.2-2.4 M123.5,70.2c-0.6,0.1-1.1,0.1-1.7,0.1v-2.4h1.1
	c1.1,0,1.7,0.4,1.7,1.3C124.6,69.7,124.1,70.2,123.5,70.2 M126,74.4l-2-3.5c1-0.2,1.7-1,1.6-2c0-0.8-0.4-2-2.5-2h-2.3v7.5h1.1v-3.3
	h1.2l1.8,3.3L126,74.4z M132.3,66.9h-4.7v7.5h4.9v-0.9h-3.8V71h2.6V70h-2.6v-2.2h3.6L132.3,66.9z M141.8,27.3c0,0.8-0.1,2.1-0.1,2.9
	c0,4.5-2.2,4.9-4.2,4.9h-1.4V20c2.7,0,3.9,0,4.8,1.4C141.7,22.6,141.8,24.5,141.8,27.3 M147,31.2v-4c0-5.3-0.4-6.9-1.4-8.4
	c-1.3-1.9-3.3-3-9-3h-5.7v23.5c3.9,0,7.2,0,7.9-0.1c1.7,0,3.5-0.5,5-1.2C146.3,36.7,147,33.9,147,31.2 M152.8,66.9h-4.7v7.5h4.9
	v-0.9h-3.8V71h2.6v-0.9h-2.6v-2.2h3.6L152.8,66.9z M153.1,54.9c0.7-0.1,1.4,0.1,1.9,0.6c0.4,0.6,0.6,1.4,0.6,2.2
	c0,1.4-0.4,2.8-2.2,2.8h-0.8v-5.6L153.1,54.9z M153.1,53.9h-1.6v7.5h1.6c2,0,2.6-0.9,2.9-1.4c0.4-0.7,0.5-1.4,0.5-2.2
	C156.6,55.4,155.6,54,153.1,53.9 M151.6,39.3h5.2V15.9h-5.2V39.3z M170.9,39.3l-8.3-12.5l7.1-10.9h-5.6l-7.1,11.3l7.7,12.1H170.9z
	 M177.3,54h-5.4v0.9h2.2v6.6h1.1v-6.6h2.2L177.3,54z M184.9,22.6c0,1.3-0.1,2.6-1.8,3.1c-0.7,0.3-1.2,0.3-4.1,0.3v-6.5
	c2.9,0,3.5,0,4.3,0.3C184.3,20.2,184.9,21,184.9,22.6 M190.8,39.3l-5-10.4c3.2-1,4.5-3.2,4.5-6.2c0-6.3-4.8-6.8-8.6-6.8H174v23.4
	h5.1v-9.6h1.7l4.4,9.6H190.8z M192.8,69.1c0,0.6-0.5,1.1-1.1,1.2c-0.6,0.1-1.1,0.1-1.7,0.1v-2.5h1.1
	C192.2,67.8,192.8,68.2,192.8,69.1 M191.3,66.9H189v7.5h1.1v-3.3h1.2l1.8,3.3h1.2l-2-3.5c1-0.2,1.7-1,1.6-2
	C193.9,68.2,193.5,67,191.3,66.9 M195.3,57.1h-2.7v-3.2h-1.1v7.5h1.1V58h2.7v3.5h1.1v-7.5h-1.1V57.1z M193.5,39.3h16.3V35h-10
	l10-14.9v-4.2h-15.5v4.3h9.5L193.5,35V39.3z M209,55.9l0.9-0.5c-0.4-1-1.4-1.6-2.4-1.6c-1.1-0.1-2.1,0.7-2.1,1.8c0,0,0,0.1,0,0.1
	c0,0.4,0.1,0.7,0.2,1.1c0.3,0.4,0.7,0.8,1.2,1l1.3,0.6c0.8,0.4,0.9,0.8,0.9,1.1c0,0.7-0.6,1.2-1.2,1.2c0,0-0.1,0-0.1,0
	c-0.8,0-1.5-0.6-1.7-1.3l-0.9,0.6c0.4,1.1,1.4,1.7,2.6,1.7c0.6,0,1.2-0.1,1.6-0.5c0.5-0.4,0.8-1,0.7-1.7c0-0.4-0.1-0.7-0.3-1
	c-0.3-0.4-0.6-0.8-1.1-1l-1.5-0.7c-0.5-0.2-0.8-0.6-0.8-1.1c0-0.6,0.6-1,1.2-1C208.4,54.8,208.7,55.3,209,55.9"/>
</svg>